<svg xmlns="http://www.w3.org/2000/svg" fill="currentColor" xmlns:xlink="http://www.w3.org/1999/xlink" width="300" zoomAndPan="magnify" viewBox="0 0 224.87999 149.999998" height="100" preserveAspectRatio="xMidYMid meet" version="1.0">
  <defs>
    <clipPath id="b8a80c2819">
      <path d="M 53 16 L 224.761719 16 L 224.761719 76 L 53 76 Z M 53 16 " clip-rule="nonzero"/>
    </clipPath>
  </defs>
  <path fill="currentColor" d="M 116.273438 85.792969 C 93.820312 93.996094 73.101562 100.066406 58.09375 103.140625 C 44.285156 105.964844 35.320312 106.269531 34.269531 103.375 C 33.257812 100.585938 39.789062 95.320312 51.351562 88.910156 C 52.503906 88.273438 53.15625 86.988281 52.976562 85.679688 C 52.972656 85.660156 52.972656 85.636719 52.96875 85.613281 C 52.671875 83.4375 50.355469 82.179688 48.394531 83.144531 C 18.570312 97.808594 0.09375 111.199219 2.515625 117.882812 C 4.996094 124.726562 28.804688 122.8125 62.316406 114.28125 C 63.53125 113.972656 64.824219 114.394531 65.601562 115.382812 C 81.421875 135.40625 108.800781 144.007812 134.035156 134.789062 C 165.933594 123.132812 173.390625 99.789062 174.128906 82.523438 C 174.554688 72.566406 171.304688 65.6875 116.273438 85.792969 Z M 116.273438 85.792969 " fill-opacity="1" fill-rule="nonzero"/>
  <g clip-path="url(#b8a80c2819)">
    <path fill="currentColor" d="M 223.960938 36.972656 C 221.429688 29.984375 196.699219 32.125 162.117188 41.097656 C 146.515625 19.914062 118.351562 10.59375 92.4375 20.0625 C 65.691406 29.835938 56.390625 48.574219 53.515625 63.886719 C 51.511719 74.542969 53.175781 84.085938 108.34375 63.929688 C 130.445312 55.855469 150.863281 49.855469 165.8125 46.734375 C 180.015625 43.769531 189.28125 43.40625 190.347656 46.347656 C 191.285156 48.929688 185.765625 53.625 175.773438 59.398438 C 173.558594 60.675781 172.441406 63.242188 172.933594 65.761719 C 172.941406 65.800781 172.949219 65.839844 172.957031 65.882812 C 173.703125 69.75 177.960938 71.792969 181.46875 70.027344 C 209.296875 56.027344 226.289062 43.394531 223.960938 36.972656 Z M 223.960938 36.972656 " fill-opacity="1" fill-rule="nonzero"/>
  </g>
</svg>
